<svg width="148" height="44" viewBox="0 0 148 44" fill="none" xmlns="http://www.w3.org/2000/svg">
<path d="M21.963 0.845747C27.3758 0.845747 32.7886 2.91783 36.9116 7.04085C45.1788 15.308 45.1788 28.692 36.9116 36.938C32.7886 41.061 27.3758 43.1331 21.963 43.1331C16.5502 43.1331 11.1374 41.061 7.01443 36.938C-1.25275 28.6708 -1.25275 15.2869 7.01443 7.04085C11.1586 2.91783 16.5714 0.845747 21.963 0.845747ZM21.963 0C16.0851 0 10.5666 2.28352 6.42239 6.44882C-2.1408 15.012 -2.1408 28.9668 6.42239 37.5512C10.5666 41.6953 16.1062 44 21.963 44C27.8409 44 33.3594 41.7165 37.5036 37.5512C46.0668 28.988 46.0668 15.0332 37.5036 6.44882C33.3594 2.28352 27.8409 0 21.963 0Z" fill="white"/>
<path d="M11.4969 32.4555C3.22968 24.1884 1.24219 12.8131 7.01441 7.04083C-1.25277 15.308 -1.25277 28.692 7.01441 36.938C15.2816 45.2052 28.6655 45.2052 36.9116 36.938C31.1393 42.7102 19.764 40.7227 11.4969 32.4555Z" fill="white"/>
<path d="M56.0465 39.9404V39.0312H58.9009C59.1758 39.0312 59.4084 38.9467 59.5564 38.7775C59.7044 38.6084 59.789 38.3969 59.789 38.1221V36.5151H59.7678C59.6198 36.7266 59.4507 36.938 59.2392 37.1072C59.0278 37.2763 58.7952 37.4243 58.5203 37.53C58.2455 37.6358 57.9495 37.678 57.6112 37.678C57.0614 37.678 56.5751 37.5512 56.1523 37.2975C55.7294 37.0437 55.4122 36.6843 55.1796 36.2403C54.9471 35.7963 54.8202 35.2677 54.8202 34.6756C54.8202 34.1048 54.9471 33.5973 55.1796 33.1322C55.4122 32.667 55.7505 32.3076 56.1945 32.0538C56.6385 31.779 57.1883 31.6521 57.8014 31.6521C58.4146 31.6521 58.9432 31.779 59.3872 32.0327C59.8312 32.2864 60.1907 32.6459 60.4233 33.111C60.677 33.5762 60.8039 34.1048 60.8039 34.7179V38.1644C60.8039 38.6929 60.6558 39.1158 60.3387 39.433C60.0215 39.7501 59.5987 39.8981 59.0489 39.8981H56.0465V39.9404ZM57.8226 36.79C58.2032 36.79 58.5415 36.7054 58.8375 36.5151C59.1335 36.3249 59.3661 36.0923 59.5141 35.7751C59.6833 35.458 59.7678 35.0985 59.7678 34.6968C59.7678 34.2951 59.6832 33.9356 59.5352 33.6185C59.3661 33.3013 59.1546 33.0476 58.8586 32.8573C58.5626 32.667 58.2243 32.5824 57.8226 32.5824C57.4209 32.5824 57.0826 32.667 56.8077 32.8573C56.5117 33.0476 56.3003 33.3013 56.1523 33.6185C56.0042 33.9356 55.9197 34.3162 55.9197 34.7179C55.9197 35.0985 56.0042 35.458 56.1523 35.754C56.3003 36.0711 56.5328 36.3249 56.8077 36.5151C57.1037 36.7054 57.442 36.79 57.8226 36.79Z" fill="white"/>
<path d="M78.8396 37.7626C78.2687 37.7626 77.7825 37.6357 77.3807 37.3609C76.979 37.086 76.6618 36.7266 76.4293 36.2614C76.2178 35.7962 76.0909 35.2888 76.0909 34.7179C76.0909 34.147 76.2178 33.6396 76.4504 33.1744C76.7041 32.7093 77.0424 32.3498 77.5076 32.0749C77.9727 31.8001 78.5225 31.6732 79.1568 31.6732C79.7699 31.6732 80.2985 31.8001 80.7426 32.0749C81.1866 32.3498 81.5249 32.7093 81.7575 33.1533C81.99 33.6184 82.1169 34.1259 82.1169 34.6756V37.6146H81.0597V36.4305H81.0386C80.9329 36.642 80.7637 36.8534 80.5734 37.0649C80.3831 37.2763 80.1294 37.4243 79.8545 37.5723C79.5797 37.6992 79.2414 37.7626 78.8396 37.7626ZM79.1145 36.8534C79.4951 36.8534 79.8334 36.7688 80.1294 36.5786C80.4254 36.3883 80.658 36.1345 80.806 35.7962C80.9751 35.4579 81.0597 35.0985 81.0597 34.6756C81.0597 34.2739 80.9751 33.9144 80.8271 33.5973C80.6791 33.2801 80.4466 33.0264 80.1505 32.8361C79.8545 32.6458 79.5162 32.5613 79.1356 32.5613C78.7339 32.5613 78.3745 32.667 78.0785 32.8573C77.7824 33.0476 77.5499 33.3013 77.4019 33.6184C77.2539 33.9356 77.1693 34.3162 77.1693 34.7179C77.1693 35.1196 77.2539 35.4791 77.4019 35.7962C77.5499 36.1134 77.7824 36.3671 78.0573 36.5574C78.3533 36.7688 78.7128 36.8534 79.1145 36.8534Z" fill="white"/>
<path d="M97.7419 37.6146V34.1048C97.7419 33.6608 97.8477 33.2379 98.0591 32.8785C98.2705 32.4979 98.5666 32.2019 98.9471 31.9904C99.3277 31.779 99.814 31.6521 100.343 31.6521C100.617 31.6521 100.871 31.6944 101.146 31.7578C101.421 31.8213 101.654 31.9481 101.886 32.1173C102.119 32.2864 102.288 32.519 102.436 32.815H102.457C102.605 32.519 102.795 32.2864 103.028 32.1173C103.26 31.9481 103.514 31.8213 103.768 31.7578C104.043 31.6944 104.296 31.6521 104.571 31.6521C105.121 31.6521 105.586 31.7578 105.967 31.9904C106.347 32.2019 106.643 32.519 106.855 32.8785C107.066 33.2591 107.172 33.6608 107.172 34.1048V37.6146H106.115V34.1048C106.115 33.8088 106.051 33.5551 105.903 33.3225C105.777 33.0899 105.586 32.8996 105.354 32.7727C105.121 32.6459 104.846 32.5613 104.55 32.5613C104.254 32.5613 104 32.6247 103.747 32.7727C103.493 32.9208 103.303 33.0899 103.176 33.3225C103.028 33.5551 102.964 33.8088 102.964 34.1048V37.6146H101.907V34.1048C101.907 33.8088 101.844 33.5551 101.696 33.3225C101.548 33.0899 101.358 32.8996 101.125 32.7727C100.892 32.6247 100.617 32.5613 100.321 32.5613C100.025 32.5613 99.7717 32.6247 99.5392 32.7727C99.3066 32.8996 99.1163 33.0899 98.9894 33.3225C98.8626 33.5551 98.778 33.8299 98.778 34.1048V37.6146H97.7419Z" fill="white"/>
<path d="M125.736 37.6146C125.102 37.6146 124.531 37.4878 124.024 37.2552C123.537 37.0226 123.135 36.6843 122.861 36.2403C122.586 35.7963 122.438 35.2888 122.438 34.6968C122.438 34.1259 122.565 33.5973 122.797 33.1322C123.03 32.667 123.368 32.3076 123.77 32.0327C124.193 31.7578 124.679 31.631 125.229 31.631C125.821 31.631 126.328 31.7578 126.73 32.0116C127.132 32.2653 127.428 32.6247 127.618 33.0476C127.808 33.4916 127.914 33.9779 127.914 34.5065C127.914 34.5911 127.914 34.6757 127.914 34.7602C127.914 34.8448 127.893 34.9294 127.893 34.9928H123.558C123.601 35.3523 123.706 35.6483 123.918 35.902C124.108 36.1557 124.362 36.346 124.679 36.4517C124.996 36.5786 125.334 36.642 125.694 36.642H127.216V37.5512H125.736V37.6146ZM123.58 34.3162H126.899C126.899 34.1682 126.878 34.0202 126.857 33.8511C126.836 33.6819 126.772 33.5339 126.688 33.3648C126.603 33.2168 126.518 33.0688 126.392 32.9419C126.265 32.815 126.117 32.7093 125.926 32.6459C125.736 32.5613 125.525 32.5402 125.271 32.5402C124.996 32.5402 124.764 32.5824 124.573 32.6882C124.362 32.7939 124.193 32.9207 124.045 33.0899C123.897 33.259 123.791 33.4493 123.706 33.6608C123.643 33.8934 123.58 34.1048 123.58 34.3162Z" fill="white"/>
<path d="M143.159 37.6145V36.7053H145.95C146.14 36.7053 146.288 36.6631 146.415 36.5785C146.542 36.4939 146.647 36.3882 146.711 36.2613C146.774 36.1345 146.816 35.9865 146.816 35.8596C146.816 35.7327 146.795 35.5847 146.732 35.479C146.668 35.3522 146.584 35.2676 146.457 35.183C146.33 35.1196 146.182 35.0773 146.013 35.0773H144.829C144.448 35.0773 144.131 35.0139 143.856 34.887C143.581 34.7601 143.37 34.5698 143.201 34.3373C143.053 34.0835 142.968 33.7875 142.968 33.4492C142.968 33.1532 143.032 32.8783 143.18 32.6246C143.328 32.3709 143.518 32.1595 143.793 32.0114C144.047 31.8634 144.343 31.7789 144.681 31.7789H147.366V32.688H144.787C144.554 32.688 144.364 32.7515 144.237 32.8995C144.11 33.0475 144.026 33.2166 144.026 33.4069C144.026 33.5972 144.089 33.7664 144.237 33.9144C144.385 34.0624 144.575 34.1258 144.829 34.1258H145.95C146.372 34.1258 146.711 34.1892 147.007 34.3161C147.303 34.443 147.514 34.6333 147.662 34.887C147.81 35.1407 147.895 35.4367 147.895 35.8173C147.895 36.1345 147.81 36.4305 147.662 36.6842C147.514 36.9591 147.303 37.1705 147.028 37.3397C146.753 37.5088 146.436 37.5934 146.076 37.5934H143.159V37.6145Z" fill="white"/>
<path d="M59.2392 25.6897C58.3089 25.6897 57.5266 25.4994 56.8711 25.1399C56.2157 24.7594 55.7082 24.2308 55.3699 23.5542C55.0316 22.8776 54.8625 22.0953 54.8625 21.2072V6.63922H56.1734V21.3764C56.1734 22.3067 56.4483 23.0467 56.998 23.6176C57.5477 24.1885 58.3089 24.4845 59.3027 24.4845H64.4829V25.6897H59.2392Z" fill="white"/>
<path d="M74.2302 26.049C72.8347 26.049 71.5872 25.7318 70.4877 25.1186C69.3883 24.5055 68.5425 23.6174 67.9294 22.4757C67.3162 21.3339 66.999 19.9807 66.999 18.4372V6.61792H68.3311V18.7121C68.3311 19.8116 68.5637 20.8476 69.05 21.7568C69.5151 22.6871 70.1917 23.4272 71.0798 23.9769C71.9678 24.5266 73.0038 24.8015 74.2302 24.8015C75.4354 24.8015 76.4714 24.5266 77.3594 23.9769C78.2475 23.4272 78.9241 22.6871 79.3892 21.7568C79.8544 20.8265 80.1081 19.8116 80.1081 18.7121V6.61792H81.419V18.4372C81.419 19.9807 81.123 21.3339 80.5098 22.4757C79.8967 23.6174 79.0509 24.5055 77.9726 25.1186C76.852 25.7318 75.6257 26.049 74.2302 26.049Z" fill="white"/>
<path d="M92.4348 6.25851C93.8303 6.25851 95.0778 6.57567 96.1772 7.18884C97.2767 7.802 98.1225 8.69004 98.7357 9.8318C99.3488 10.9736 99.666 12.3268 99.666 13.8702V25.6896H98.3339V13.5954C98.3339 12.4959 98.1013 11.4599 97.615 10.5507C97.1499 9.62036 96.4733 8.88033 95.5852 8.3306C94.6972 7.78086 93.6612 7.50599 92.4348 7.50599C91.2296 7.50599 90.1936 7.78086 89.3055 8.3306C88.4175 8.88033 87.7409 9.62036 87.2758 10.5507C86.8106 11.481 86.5569 12.4959 86.5569 13.5954V25.6896H85.246V13.8702C85.246 12.3268 85.542 10.9736 86.1552 9.8318C86.7683 8.69004 87.6141 7.802 88.6924 7.18884C89.813 6.57567 91.0393 6.25851 92.4348 6.25851Z" fill="white"/>
<path d="M102.838 25.6896L109.625 8.1403C109.878 7.4637 110.174 6.9774 110.534 6.70253C110.893 6.40652 111.316 6.25851 111.824 6.25851C112.331 6.25851 112.775 6.40652 113.135 6.68139C113.494 6.95626 113.79 7.44256 114.044 8.11916L120.873 25.6896H119.435L117.342 20.2979H106.326L104.254 25.6896H102.838ZM106.749 19.135H116.919L112.86 8.58432C112.733 8.24602 112.606 7.97115 112.458 7.75972C112.31 7.56942 112.099 7.4637 111.824 7.4637C111.549 7.4637 111.337 7.56942 111.211 7.75972C111.084 7.95001 110.936 8.22488 110.788 8.58432L106.749 19.135Z" fill="white"/>
<path d="M140.642 25.6896C139.585 25.6896 138.676 25.4359 137.936 24.9496C137.175 24.4633 136.604 23.8289 136.202 23.0466C135.801 22.2643 135.61 21.4397 135.61 20.594C135.61 19.6214 135.864 18.691 136.35 17.8453C136.858 16.9995 137.598 16.3864 138.591 16.0269C137.619 15.5829 136.879 14.9486 136.435 14.1663C135.97 13.384 135.737 12.5594 135.737 11.6925C135.737 10.7622 135.949 9.91641 136.393 9.15523C136.837 8.39406 137.429 7.78089 138.169 7.33688C138.909 6.89286 139.733 6.66028 140.642 6.66028H147.895V7.82318H140.812C140.072 7.82318 139.416 7.99233 138.866 8.33063C138.317 8.66893 137.873 9.13409 137.555 9.72611C137.238 10.3181 137.069 10.9736 137.069 11.6713C137.069 12.3479 137.238 12.9611 137.577 13.532C137.915 14.1029 138.38 14.5469 138.951 14.8852C139.522 15.2235 140.177 15.3926 140.917 15.3926H146.838V16.5555H141.108C140.198 16.5555 139.437 16.7458 138.824 17.1475C138.211 17.5281 137.746 18.0356 137.429 18.6699C137.111 19.2831 136.942 19.9385 136.942 20.594C136.942 21.2706 137.09 21.9049 137.386 22.4969C137.682 23.0889 138.126 23.5752 138.718 23.9347C139.31 24.3153 140.029 24.4844 140.875 24.4844H147.874V25.6896H140.642Z" fill="white"/>
<path d="M125.884 25.6895H127.216V7.82311H133.517V6.61792H119.583V7.82311H125.884V25.6895Z" fill="white"/>
<path d="M25.7053 22.8775L34.1417 14.9909V15.4137L26.4665 23.6598L25.7053 22.8775Z" fill="white"/>
<path d="M30.0822 27.4022L34.4166 23.3637L34.6492 23.5751L30.8433 28.121L30.0822 27.4022Z" fill="white"/>
<path d="M33.8668 15.9212C34.0994 16.1538 34.332 16.4075 34.5434 16.6401C34.9451 17.1476 35.4103 17.655 35.7697 18.2047C36.2772 18.9236 36.7846 19.8328 37.1441 20.6363L37.419 20.3191C37.419 20.3191 36.4886 18.3105 35.96 17.3167C35.6429 16.6824 35.2411 16.1115 34.8605 15.5195C34.6491 15.2235 34.4588 14.9486 34.2474 14.6526C34.036 14.3566 33.8245 14.0817 33.6131 13.8069C33.1691 13.2571 32.7251 12.7074 32.2388 12.1788L31.5199 11.3965L30.7587 10.6353L30.3781 10.2547L29.9552 9.89528C29.6804 9.6627 29.4055 9.40897 29.1095 9.19753L28.2215 8.54208C28.0734 8.43636 27.9254 8.33064 27.7563 8.24607L27.27 7.9712C25.9802 7.23117 24.5213 6.68144 23.0624 6.59686C21.6035 6.49114 20.2503 6.85059 19.1508 7.4849C18.6222 7.8232 18.1148 8.18264 17.6707 8.60551C17.2267 9.02839 16.825 9.4724 16.4655 10.0433C16.2753 10.3393 16.1273 10.6564 16.0004 11.0582C15.8947 11.4599 15.8312 11.9251 15.8735 12.3902C15.9158 12.8765 16.0427 13.3628 16.233 13.7857C16.4233 14.2086 16.6347 14.5892 16.8461 14.9275C17.2902 15.6252 17.7976 16.1749 18.2839 16.7247C18.7702 17.2533 19.2777 17.7607 19.7851 18.247C20.8 19.2196 21.8149 20.1288 22.8298 21.0591L25.8745 23.8078C26.8894 24.717 27.9043 25.6473 28.9615 26.5354C29.3421 26.8525 30.3781 27.7828 30.8856 28.1211L31.2661 27.6771C31.0758 27.4868 26.0648 22.7718 24.2887 20.6997C23.4007 19.6637 22.5127 18.6065 21.6669 17.5704C21.244 17.0418 20.8423 16.5344 20.4406 16.0058C20.06 15.4984 19.7005 14.9698 19.4468 14.5046C19.1931 14.0394 19.0662 13.6377 19.0874 13.384C19.0874 13.1303 19.1931 12.8342 19.4468 12.4959C19.6794 12.1576 20.0177 11.7982 20.3983 11.5022C20.7577 11.185 21.1383 10.9102 21.5189 10.6776C22.3012 10.2124 23.1892 9.97985 24.1407 9.97985C25.0922 9.97985 26.1071 10.2547 27.1431 10.741L27.5237 10.9313C27.6506 10.9947 27.7774 11.0582 27.9254 11.1428L28.7077 11.5868C28.9615 11.7559 29.2152 11.9251 29.4901 12.1154L29.8706 12.3691L30.2512 12.6651L31.0124 13.2571L31.7524 13.8914C32.2599 14.3143 32.7251 14.7795 33.2114 15.2235C33.4228 15.4349 33.6554 15.6675 33.8668 15.9212Z" fill="white"/>
<path d="M27.9042 25.1399L35.8965 17.655V18.099L28.6443 25.9222L27.9042 25.1399Z" fill="white"/>
<path d="M23.5275 20.6363L31.9427 12.7286V13.1726L24.2676 21.4186L23.5275 20.6363Z" fill="white"/>
<path d="M21.3287 18.3738L29.3421 10.9312V11.3541L22.0687 19.1561L21.3287 18.3738Z" fill="white"/>
<path d="M19.1298 16.1326L26.3821 9.45117L26.5935 9.66261L19.891 16.8937L19.1298 16.1326Z" fill="white"/>
</svg>
